<svg xmlns="http://www.w3.org/2000/svg" viewBox="0 0 24 24" width="64" height="64">
  <defs>
    <linearGradient id="g" x1="0" y1="0" x2="1" y2="1">
      <stop offset="0%" stop-color="#0b3c5d"/>
      <stop offset="100%" stop-color="#12a5b0"/>
    </linearGradient>
  </defs>
  <rect width="24" height="24" rx="5" fill="url(#g)"/>
  <path d="m14.7 6.3-1.2 1.2a3 3 0 0 0 0 4.2l1.3 1.3a1 1 0 0 0 1.4 0l3.6-3.6a1 1 0 0 0 0-1.4l-1.3-1.3a3 3 0 0 0-4.2 0z" fill="none" stroke="#fff" stroke-width="1.6" stroke-linecap="round" stroke-linejoin="round"/>
  <path d="m9.6 11.4-6.3 6.3a2 2 0 1 0 2.8 2.8l6.3-6.3" fill="none" stroke="#fff" stroke-width="1.6" stroke-linecap="round" stroke-linejoin="round"/>
</svg>
